<?xml version="1.0" standalone="no"?>
<!DOCTYPE svg PUBLIC "-//W3C//DTD SVG 20010904//EN"
 "http://www.w3.org/TR/2001/REC-SVG-20010904/DTD/svg10.dtd">
<svg version="1.0" xmlns="http://www.w3.org/2000/svg"
 width="418.000000pt" height="418.000000pt" viewBox="0 0 418.000000 418.000000"
 preserveAspectRatio="xMidYMid meet">
<metadata>
Created by potrace 1.11, written by Peter Selinger 2001-2013
</metadata>
<g transform="translate(0.000000,418.000000) scale(0.100000,-0.100000)"
fill="#000000" stroke="none">
<path d="M0 2090 l0 -2090 990 0 990 0 0 125 0 125 -32 0 c-48 1 -192 34 -278
65 -460 166 -786 602 -807 1081 l-6 120 32 27 c37 30 69 34 110 12 36 -18 51
-60 51 -139 0 -81 30 -222 69 -321 64 -166 198 -341 351 -457 91 -69 247 -144
365 -175 87 -22 120 -26 255 -26 135 0 168 4 255 26 386 101 686 416 766 802
10 50 19 117 19 151 0 79 15 121 51 139 41 22 73 18 110 -12 l32 -27 -6 -120
c-21 -479 -347 -915 -807 -1081 -86 -31 -230 -64 -277 -65 l-33 0 0 -125 0
-125 990 0 990 0 0 2090 0 2090 -2090 0 -2090 0 0 -2090z m2166 1946 c46 -46
48 -101 5 -148 -26 -29 -35 -33 -81 -33 -46 0 -55 4 -81 33 -43 47 -41 102 5
148 28 28 42 34 76 34 34 0 48 -6 76 -34z m-890 -225 c42 -26 60 -78 44 -127
-33 -99 -181 -96 -211 5 -10 34 -9 44 7 77 31 64 99 82 160 45z m1764 -6 c52
-47 45 -140 -14 -176 -91 -56 -199 26 -166 127 16 49 62 76 118 71 24 -3 51
-12 62 -22z m-872 -118 c16 -16 26 -40 29 -71 5 -42 3 -48 -30 -81 -29 -29
-42 -35 -77 -35 -35 0 -48 6 -77 35 -33 33 -35 39 -30 81 5 46 27 80 62 95 34
15 96 3 123 -24z m-689 -173 c85 -71 16 -210 -94 -190 -60 12 -100 80 -83 143
19 72 116 98 177 47z m1365 5 c69 -54 38 -178 -49 -195 -110 -20 -179 119 -94
190 39 33 104 36 143 5z m-566 -291 c213 -65 379 -225 449 -431 l28 -82 0
-705 0 -705 -23 -70 c-39 -115 -81 -184 -167 -271 -139 -141 -278 -199 -475
-199 -197 0 -335 58 -477 200 -64 65 -90 100 -122 167 -72 149 -72 145 -69
906 l3 677 28 82 c80 237 292 414 541 454 74 11 208 1 284 -23z m-1456 -34
c60 -55 25 -174 -57 -190 -139 -26 -185 178 -49 215 34 9 79 -2 106 -25z
m2694 -5 c53 -50 35 -147 -32 -175 -67 -28 -133 3 -153 72 -30 109 101 182
185 103z m-2357 -143 c21 -22 26 -36 26 -77 0 -45 -4 -54 -33 -80 -47 -43
-102 -41 -148 5 -28 28 -34 42 -34 76 0 35 6 48 35 77 33 33 39 35 81 30 32
-3 55 -13 73 -31z m2017 0 c28 -28 34 -42 34 -76 0 -34 -6 -48 -34 -76 -46
-46 -101 -48 -148 -5 -29 26 -33 36 -33 79 0 73 38 110 114 111 25 1 41 -7 67
-33z m-2433 -546 c53 -59 34 -146 -40 -176 -91 -38 -181 59 -138 149 34 71
125 85 178 27z m2822 24 c65 -31 83 -125 32 -172 -38 -36 -79 -46 -120 -28
-89 37 -93 159 -6 203 32 17 54 16 94 -3z m-2486 -58 c31 -17 51 -54 51 -96 0
-112 -142 -153 -200 -58 -25 42 -25 74 0 116 31 51 93 66 149 38z m2158 -20
c42 -49 42 -103 0 -151 -27 -31 -84 -43 -127 -25 -75 31 -80 155 -9 197 38 21
109 10 136 -21z"/>
<path d="M1982 3055 c-96 -21 -150 -53 -233 -135 -60 -60 -81 -89 -105 -145
l-29 -70 -3 -664 c-2 -455 1 -681 8 -717 44 -212 248 -374 470 -374 222 0 426
162 470 374 7 36 10 262 8 717 l-3 664 -29 69 c-35 83 -129 188 -205 229 -106
58 -237 78 -349 52z"/>
</g>
</svg>
