<?xml version="1.0" encoding="UTF-8"?>
<svg width="20px" height="20px" viewBox="0 0 20 20" version="1.1" xmlns="http://www.w3.org/2000/svg" xmlns:xlink="http://www.w3.org/1999/xlink">
    <!-- Generator: Sketch 57.1 (83088) - https://sketch.com -->
    <title>Fill 1</title>
    <desc>Created with Sketch.</desc>
    <g id="Symbols" stroke="none" stroke-width="1" fill="none" fill-rule="evenodd">
        <g id="header" transform="translate(-1284.000000, -27.000000)" fill="#0195D2" stroke="#0195D2">
            <g id="nav-bar">
                <g id="search" transform="translate(1032.000000, 16.000000)">
                    <path d="M265.327631,15.2802632 C266.582658,16.5345789 267.210289,18.0465789 267.210526,19.8157895 C267.211473,20.3171842 267.160079,20.7989211 267.056579,21.2605263 C266.801973,22.4182105 266.229526,23.4366316 265.339473,24.3157895 L265.315789,24.3394737 C264.078526,25.5862105 262.578368,26.2100526 260.815789,26.2105263 C259.046579,26.2102895 257.534579,25.5826579 256.280263,24.3276316 C255.040631,23.0887105 254.420815,21.5847632 254.421052,19.8157895 C254.420579,18.0463421 255.040394,16.5345789 256.280263,15.2802632 C257.534579,14.0403947 259.046342,13.4205789 260.815789,13.4210526 C262.584763,13.4208158 264.08871,14.0406316 265.327631,15.2802632 M270.999999,29.2894731 C271.000236,29.0928942 270.929184,28.9233152 270.786842,28.7802626 L266.819736,24.8131575 C267.64371,23.8544207 268.184421,22.7727628 268.442105,21.5684207 L268.442105,21.5565786 C268.567631,20.9997629 268.630631,20.4194997 268.631578,19.8157892 C268.631815,17.6534209 267.866105,15.8060525 266.33421,14.2736841 C264.817947,12.7581316 262.978394,12.0002368 260.815789,12 C258.653658,12.0004737 256.806289,12.7583684 255.273684,14.2736841 C253.758368,15.8062893 253.000474,17.6536577 253,19.8157892 C253.000237,21.9783944 253.758132,23.817947 255.273684,25.3342101 C256.806053,26.8661048 258.653421,27.6318153 260.815789,27.6315784 C262.736579,27.6320521 264.402526,27.0281048 265.813157,25.8197364 L269.780263,29.7868415 C269.923315,29.9291836 270.092894,30.0002363 270.289473,29.9999994 C270.486052,30.0002363 270.651842,29.9291836 270.786842,29.7868415 C270.929184,29.6518415 271.000236,29.4860521 270.999999,29.2894731" id="Fill-1"></path>
                </g>
            </g>
        </g>
    </g>
</svg>