<?xml version="1.0" encoding="UTF-8"?>
<svg width="177px" height="28px" viewBox="0 0 177 28" version="1.1" xmlns="http://www.w3.org/2000/svg" xmlns:xlink="http://www.w3.org/1999/xlink">
    <!-- Generator: Sketch 57.1 (83088) - https://sketch.com -->
    <title>logo</title>
    <desc>Created with Sketch.</desc>
    <defs>
        <polygon id="path-1" points="0 0.243936 66.6560543 0.243936 66.6560543 27.999776 0 27.999776"></polygon>
    </defs>
    <g id="Symbols" stroke="none" stroke-width="1" fill="none" fill-rule="evenodd">
        <g id="header" transform="translate(-123.000000, -28.000000)">
            <g id="nav-bar">
                <g id="site-logo" transform="translate(123.000000, 22.000000)">
                    <g id="logo" transform="translate(0.000000, 6.000000)">
                        <path d="M75.0219043,26.2375809 L67.2051712,4.15017846 C67.1042487,3.84246038 66.9565217,3.44045955 66.9565217,3.08671368 C66.9565217,2.12903859 67.7543938,1.2173913 68.8956215,1.2173913 C69.8920475,1.2173913 70.5414612,1.87848407 70.8391092,2.83541677 L77.3145981,21.8653116 L83.8339664,2.78159394 C84.1316143,1.87848407 84.7305669,1.2173913 85.7229706,1.2173913 L85.9226214,1.2173913 C86.9702399,1.2173913 87.6185567,1.87848407 87.915839,2.78159394 L94.3854774,21.8653116 L100.964083,2.73296781 C101.21456,1.92414067 101.759029,1.2173913 102.804088,1.2173913 C103.896317,1.2173913 104.695652,2.07595815 104.695652,3.03586039 C104.695652,3.38849269 104.546828,3.79309185 104.448831,4.10043874 L96.5823681,26.2375809 C96.1786784,27.3960708 95.3837316,28 94.491519,28 L94.3386728,28 C93.3440751,28 92.5959329,27.3960708 92.2434358,26.2375809 L85.8268183,7.4678916 L79.3524263,26.2375809 C79.0061455,27.3960708 78.256175,28 77.2615773,28 L77.1595579,28 C76.2139588,28 75.421206,27.3960708 75.0219043,26.2375809" id="Fill-1" fill="#717074"></path>
                        <path d="M132.695652,3.19128411 C132.695652,2.12419469 133.541034,1.2173913 134.585974,1.2173913 C135.686104,1.2173913 136.531486,2.07336324 136.531486,3.19128411 L136.531486,7.67187236 C138.426194,3.31854825 142.623133,1.26377036 145.405254,1.26377036 C146.552166,1.26377036 147.304348,2.12419469 147.304348,3.23432388 C147.304348,4.30067123 146.603335,5.0564644 145.604812,5.21044288 C140.618046,5.81856512 136.531486,9.61237225 136.531486,17.1565757 L136.531486,26.0290755 C136.531486,27.0920835 135.733252,28 134.637143,28 C133.541034,28 132.695652,27.1377205 132.695652,26.0290755 L132.695652,3.19128411" id="Fill-3" fill="#717074"></path>
                        <path d="M166.594476,13.1669452 C166.195362,8.50587333 163.496022,4.44038693 158.362795,4.44038693 C153.871735,4.44038693 150.473851,8.15792795 149.983639,13.1669452 L166.594476,13.1669452 Z M158.961653,28 C151.870937,28 146.086957,22.5938033 146.086957,14.6582972 L146.086957,14.5557874 C146.086957,7.17251137 151.324722,1.2173913 158.46248,1.2173913 C166.091197,1.2173913 170.434783,7.41353794 170.434783,14.212251 C170.434783,15.2531478 169.579805,15.9960681 168.638583,15.9960681 L149.983639,15.9960681 C150.526121,21.5495997 154.466486,24.6730249 159.061338,24.6730249 C162.254997,24.6730249 164.594426,23.4348244 166.494418,21.6965671 C166.78974,21.4533361 167.141438,21.2545626 167.592448,21.2545626 C168.534044,21.2545626 169.289336,22.0000549 169.289336,22.8969236 C169.289336,23.3411326 169.0937,23.7849743 168.685998,24.1307151 C166.243151,26.4605162 163.348921,28 158.961653,28 L158.961653,28 Z" id="Fill-5" fill="#717074"></path>
                        <path d="M123.085029,17.9346141 L123.085029,15.4338239 C121.249003,14.8833702 118.781442,14.3273936 115.744827,14.3273936 C111.070272,14.3273936 108.458584,16.4353182 108.458584,19.6875973 L108.458584,19.7873785 C108.458584,23.0381848 111.354977,24.9421286 114.734161,24.9421286 C119.318193,24.9421286 123.085029,22.0366905 123.085029,17.9346141 M104.695652,19.9394436 L104.695652,19.8367168 C104.695652,14.3807821 109.036159,11.4742394 115.361079,11.4742394 C118.546437,11.4742394 120.811651,11.9267528 123.03959,12.5769877 L123.03959,11.6749065 C123.03959,7.01906253 120.279515,4.6154762 115.604605,4.6154762 C113.09196,4.6154762 111.631162,4.95127135 109.795135,5.79628217 C109.551964,5.89569521 109.308439,5.9483473 109.122777,5.9483473 C108.252333,5.9483473 107.476317,5.1939128 107.476317,4.2962499 C107.476317,3.49615904 107.814626,3.00203943 108.495503,2.69054524 C110.950639,1.58558774 112.802995,1.2173913 115.988353,1.2173913 C119.512019,1.2173913 122.21423,2.16328795 124.046352,4.0687045 C125.737896,5.82095133 126.608696,8.32321431 126.608696,11.6259363 L126.608696,25.9134308 C126.608696,27.0132336 125.83694,27.8159018 124.817753,27.8159018 C123.757742,27.8159018 123.03959,27.0132336 123.03959,26.0117392 L123.03959,23.5411412 C121.298347,25.8964938 118.402309,28 114.016009,28 C109.378727,28 104.695652,25.2458907 104.695652,19.9394436" id="Fill-7" fill="#717074"></path>
                        <g id="Group-11">
                            <mask id="mask-2" fill="white">
                                <use xlink:href="#path-1"></use>
                            </mask>
                            <g id="Clip-10"></g>
                            <path d="M6.98614887,2.451456 C6.14737287,0.567242667 4.07608743,-0.289930667 2.14344565,0.596362667 C0.20862051,1.479296 -0.505339792,3.67822933 0.369097826,5.56916267 L8.49085113,23.6739627 C9.7659362,26.511296 11.1119806,27.999776 13.6377698,27.999776 C16.3349532,27.999776 17.5117869,26.376896 18.7872358,23.6739627 C18.7872358,23.6739627 25.871163,7.84910933 25.939939,7.688576 C26.0149012,7.516096 26.2401517,7.00724267 26.9602982,7.01172267 C27.5701848,7.01806933 28.0832755,7.516096 28.0832755,8.18324267 L28.0832755,23.660896 C28.0832755,26.043136 29.3721886,27.999776 31.8546744,27.999776 C34.3302462,27.999776 35.6719239,26.043136 35.6719239,23.660896 L35.6719239,10.999296 C35.6719239,8.55844267 37.3785874,6.97364267 39.7024154,6.97364267 C42.0255156,6.97364267 43.5720657,8.60846933 43.5720657,10.999296 L43.5720657,23.660896 C43.5720657,26.043136 44.8675288,27.999776 47.3416451,27.999776 C49.8201281,27.999776 51.1661725,26.043136 51.1661725,23.660896 L51.1661725,10.999296 C51.1661725,8.55844267 52.8673776,6.97364267 55.1933889,6.97364267 C57.5110307,6.97364267 59.0644948,8.60846933 59.0644948,10.999296 L59.0644948,23.660896 C59.0644948,26.043136 60.3552273,27.999776 62.834802,27.999776 C65.3111016,27.999776 66.6560543,26.043136 66.6560543,23.660896 L66.6560543,9.25172267 C66.6560543,3.95486933 62.5091167,0.243936 57.5110307,0.243936 C52.5238615,0.243936 49.3991026,3.78798933 49.3991026,3.78798933 C47.7390175,1.57822933 45.4490317,0.247296 41.5750147,0.247296 C37.4870279,0.247296 33.9114041,3.78798933 33.9114041,3.78798933 C32.2469523,1.57822933 29.4205865,0.247296 27.0767443,0.247296 C23.4552698,0.247296 20.5783228,1.88100267 18.8239891,6.000736 L13.6377698,18.5406293 L6.98614887,2.451456" id="Fill-9" fill="#717074" mask="url(#mask-2)"></path>
                        </g>
                        <path d="M175.936098,4.25617096 L175.936098,4.2502542 C175.936098,2.89113903 174.883064,1.77739548 173.476337,1.77739548 C172.081504,1.77739548 171.012377,2.90819322 171.012377,4.25617096 L171.012377,4.27426929 C171.012377,5.63164424 172.069259,6.7408632 173.476337,6.7408632 C174.866622,6.7408632 175.936098,5.60936937 175.936098,4.25617096 M170.434783,4.2774017 L170.434783,4.25617096 C170.434783,2.60574224 171.780637,1.2173913 173.476337,1.2173913 C175.191978,1.2173913 176.521739,2.59251654 176.521739,4.24190112 L176.521739,4.25617096 C176.521739,5.91356057 175.179733,7.30434783 173.476337,7.30434783 C171.756498,7.30434783 170.434783,5.93513935 170.434783,4.2774017" id="Fill-12" fill="#717074"></path>
                        <path d="M172.943845,3.60549436 C173.257932,3.60549436 173.430732,3.47318789 173.430732,3.26527774 L173.430732,3.25783192 C173.430732,3.03474374 173.245812,2.91389238 172.93588,2.91389238 L172.295932,2.91389238 L172.295932,3.60549436 L172.943845,3.60549436 Z M171.652174,2.7036912 C171.652174,2.55362933 171.792769,2.43478261 171.97388,2.43478261 L172.980206,2.43478261 C173.358357,2.43478261 173.648204,2.52470518 173.829661,2.68364477 C173.998306,2.81595123 174.086957,3.00896976 174.086957,3.23091242 L174.086957,3.23864462 C174.086957,3.62124513 173.853555,3.85263825 173.503454,3.97406237 L173.950171,4.42195698 C174.010426,4.48839659 174.050596,4.54309472 174.050596,4.62413959 C174.050596,4.76961942 173.902036,4.86956522 173.74482,4.86956522 C173.603878,4.86956522 173.507263,4.80713489 173.430732,4.73468135 L172.807059,4.07973571 L172.295932,4.07973571 L172.295932,4.60409315 C172.295932,4.75215039 172.155337,4.86956522 171.97388,4.86956522 C171.792769,4.86956522 171.652174,4.75215039 171.652174,4.60409315 L171.652174,2.7036912 Z" id="Fill-14" fill="#717074"></path>
                    </g>
                </g>
            </g>
        </g>
    </g>
</svg>